<svg width="72" height="73" viewBox="0 0 72 73" fill="none" xmlns="http://www.w3.org/2000/svg">
<g clip-path="url(#clip0_215_5177)">
<rect y="0.138672" width="72" height="72" fill="#8EC63E"/>
<path fill-rule="evenodd" clip-rule="evenodd" d="M64.5212 72.1387H73.1958V63.3371C72.6161 61.6003 72.0381 59.8631 71.4601 58.1258C69.4539 52.0958 67.4475 46.0652 65.3672 40.0511C63.0777 33.4242 59.1699 27.8128 53.8849 23.1825C50.9583 20.6178 47.7219 18.5351 44.1756 16.8826C42.3022 16.0053 40.3716 15.3077 38.4401 14.6097C37.5673 14.2943 36.6943 13.9788 35.8264 13.6466C35.3532 13.465 34.8803 13.2834 34.4076 13.1019C31.4758 11.9759 28.5533 10.8534 25.6179 9.75653C23.3025 8.8873 20.9785 8.02237 18.6546 7.15744C16.3305 6.29248 14.0064 5.42752 11.691 4.55826C9.18903 3.61728 6.68708 2.66099 4.18512 1.70471C2.93421 1.22659 1.6833 0.748476 0.432392 0.272272L0.432355 0.272259C0.331274 0.23857 0.230182 0.204877 0 0.138916V0.180603C0.0274668 0.263826 0.0548536 0.346809 0.0821644 0.429562C0.614081 2.04128 1.11716 3.56561 1.62023 5.07465C3.03825 9.3069 4.46211 13.5362 5.88579 17.7651C7.91886 23.804 9.95157 29.8418 11.9664 35.8856C14.2904 42.8568 18.1122 48.8641 23.6037 53.7869C26.4442 56.3344 29.5773 58.4172 33.0031 60.104C34.8551 61.0115 36.7769 61.718 38.694 62.4228C39.4678 62.7072 40.2408 62.9914 41.0081 63.2884C44.1928 64.5277 47.3776 65.7498 50.5796 66.9547C51.4747 67.2921 52.3753 67.6184 53.2759 67.9447C54.627 68.4343 55.9781 68.9238 57.3106 69.4506C58.7517 70.0208 60.21 70.553 61.6701 71.0859C62.6211 71.433 63.5729 71.7804 64.5212 72.1387Z" fill="white"/>
</g>
<defs>
<clipPath id="clip0_215_5177">
<rect width="72" height="72" fill="white" transform="translate(0 0.138672)"/>
</clipPath>
</defs>
</svg>
