<svg width="72" height="73" viewBox="0 0 72 73" fill="none" xmlns="http://www.w3.org/2000/svg">
<g clip-path="url(#clip0_215_5164)">
<rect y="0.138672" width="73.0557" height="72" fill="#AE8BE2"/>
<path d="M30.1562 0.138672C30.1562 3.04721 30.1409 5.95575 30.1562 8.84906C30.1562 9.32113 30.0343 9.61046 29.5927 9.85411C27.1711 11.1789 24.7648 12.5495 22.3737 13.92C22.0539 14.1027 21.8559 14.0875 21.5513 13.9047C19.1602 12.5342 16.7539 11.1789 14.3323 9.85411C13.9059 9.62569 13.7841 9.36681 13.7841 8.90998C13.7993 6.27554 13.7993 3.65633 13.7993 1.02189C13.7993 0.732562 13.8754 0.412775 13.7231 0.138672C19.1907 0.138672 24.6734 0.138672 30.1562 0.138672Z" fill="#FDFEFD"/>
<path d="M73.0269 19.5088C73.0269 20.8489 73.0117 22.189 73.0421 23.529C73.0574 23.9554 72.9203 24.2143 72.5396 24.4275C70.1942 25.7371 67.8488 27.0467 65.5186 28.3867C65.0465 28.6608 64.6962 28.6761 64.2241 28.402C61.8939 27.0619 59.5485 25.7371 57.2031 24.4427C56.8224 24.2295 56.6853 23.9859 56.6853 23.5595C56.7005 20.8337 56.7005 18.0926 56.6853 15.3668C56.6853 15.0471 56.7158 14.8186 57.0508 14.6359C59.5333 13.2502 62.0005 11.8492 64.4678 10.4482C64.7571 10.2807 65.0313 10.2959 65.3206 10.4787C67.7422 11.8644 70.1637 13.2349 72.6005 14.5902C72.966 14.7882 73.0574 15.0471 73.0574 15.443C73.0117 16.7678 73.0269 18.1383 73.0269 19.5088Z" fill="#FDFEFD"/>
<path d="M55.8579 19.4783C55.8579 20.8489 55.8427 22.2194 55.8731 23.5747C55.8731 23.9858 55.7513 24.2142 55.401 24.4122C53.0251 25.737 50.6645 27.0619 48.3039 28.4172C47.8927 28.6456 47.5424 28.676 47.1312 28.4324C44.7706 27.0771 42.4099 25.737 40.0341 24.4122C39.6838 24.2142 39.5315 23.9858 39.5315 23.5747C39.5467 20.8184 39.5467 18.0621 39.5315 15.2907C39.5315 14.8947 39.6838 14.6968 39.9884 14.514C42.4252 13.1435 44.8467 11.7882 47.2683 10.4025C47.5729 10.235 47.8165 10.235 48.1211 10.4025C50.5731 11.7882 53.0099 13.1892 55.4772 14.5597C55.7817 14.7272 55.8731 14.9252 55.8731 15.2754C55.8427 16.6916 55.8579 18.0774 55.8579 19.4783Z" fill="#FDFEFD"/>
<path d="M5.19335 19.4325C5.19335 18.062 5.20858 16.6915 5.17812 15.3362C5.16289 14.9555 5.29997 14.7575 5.61979 14.5748C8.05657 13.2195 10.4781 11.849 12.8997 10.4632C13.2499 10.2653 13.5393 10.2957 13.8744 10.4937C16.2502 11.849 18.6413 13.189 21.0324 14.5139C21.3827 14.7118 21.5655 14.9402 21.5655 15.3971C21.535 18.1077 21.5502 20.8182 21.5655 23.5136C21.5655 23.9552 21.4284 24.1988 21.0476 24.412C18.7022 25.7216 16.3568 27.0312 14.0114 28.3713C13.5393 28.6454 13.189 28.6606 12.7017 28.3713C10.3715 27.0312 8.02612 25.7064 5.68072 24.412C5.29997 24.1988 5.14767 23.9552 5.1629 23.5136C5.20859 22.1735 5.19335 20.803 5.19335 19.4325Z" fill="#FDFEFD"/>
<path d="M48.1129 34.1122C48.1129 32.7417 48.1281 31.3712 48.1129 30.0159C48.1129 29.62 48.2042 29.4068 48.585 29.1936C50.9761 27.8535 53.3367 26.483 55.7126 25.0973C56.1238 24.8536 56.4436 24.8536 56.87 25.0973C59.2611 26.4983 61.6522 27.884 64.0585 29.2393C64.3783 29.422 64.4697 29.62 64.4697 29.955C64.4697 32.7113 64.4545 35.4675 64.4849 38.2238C64.4849 38.6502 64.3022 38.8481 63.9671 39.0309C62.0177 40.1273 59.9921 41.1171 58.1493 42.381C56.7939 43.3099 55.7887 43.2947 54.4332 42.381C52.6057 41.1476 50.6105 40.1577 48.6763 39.0918C48.2499 38.8634 48.0824 38.5893 48.0976 38.0867C48.1281 36.7467 48.1129 35.4371 48.1129 34.1122Z" fill="#FDFEFD"/>
<path d="M38.7157 19.4781C38.7157 20.8182 38.7004 22.1583 38.7309 23.4983C38.7461 23.9552 38.5938 24.214 38.1826 24.4577C35.8068 25.7673 33.4614 27.1226 31.1007 28.4626C30.7047 28.691 30.3697 28.6758 29.989 28.4474C27.6131 27.0921 25.222 25.7521 22.8461 24.412C22.5263 24.2293 22.374 24.0161 22.374 23.6354C22.3893 20.8486 22.3893 18.0772 22.374 15.2904C22.374 14.9554 22.4806 14.7422 22.7852 14.5747C25.2372 13.2042 27.6892 11.8185 30.126 10.4327C30.4154 10.2652 30.6743 10.2804 30.9789 10.448C33.4004 11.8185 35.822 13.189 38.2588 14.5443C38.609 14.7422 38.7309 14.9859 38.7309 15.3818C38.7004 16.7371 38.7157 18.1076 38.7157 19.4781Z" fill="#FDFEFD"/>
</g>
<defs>
<clipPath id="clip0_215_5164">
<rect width="72" height="72" fill="white" transform="translate(0 0.138672)"/>
</clipPath>
</defs>
</svg>
