<svg width="72" height="73" viewBox="0 0 72 73" fill="none" xmlns="http://www.w3.org/2000/svg">
<g clip-path="url(#clip0_215_5147)">
<rect x="-14" y="-13.8613" width="92" height="92" fill="#8EC63E"/>
<path fill-rule="evenodd" clip-rule="evenodd" d="M18.6339 72.1387H56.5097C62.6479 68.6471 67.5013 63.7696 71.0111 57.5796C71.4095 56.8763 71.7857 56.1672 72.1394 55.4524V20.8841C70.8822 18.4485 69.337 16.1219 67.5064 13.9049C64.3607 10.093 60.6338 6.96485 56.3086 4.52044C52.462 2.34953 48.359 1.01621 44.0508 0.161521C43.9922 0.150256 43.933 0.143149 43.8735 0.138672H32.0121C31.799 0.175924 31.5854 0.212174 31.3717 0.248455L31.3717 0.248457C30.4612 0.403032 29.5473 0.558187 28.6469 0.793992C25.4841 1.5974 22.4069 2.64012 19.5177 4.16147C16.6284 5.66572 13.9102 7.47767 11.4826 9.66567C4.6442 15.8194 0.455704 23.4091 -0.860682 32.5201C-2.17707 41.5798 -0.70682 50.1096 4.08004 57.9898C7.70593 63.9592 12.5463 68.6809 18.6339 72.1387ZM43.7944 4.9478C44.4625 4.81711 45.1182 5.03184 45.7407 5.23566C45.8509 5.27176 45.9601 5.30752 46.0682 5.34096C59.3004 9.28963 67.6432 17.9562 70.994 31.3577C71.153 31.9933 71.2365 32.6515 71.3197 33.3073C71.3619 33.6392 71.4039 33.9704 71.4556 34.2978C71.5069 34.6568 71.4214 34.9132 71.0453 35.0158C70.0508 35.2782 69.2014 35.8196 68.3528 36.3604C68.151 36.489 67.9494 36.6175 67.7458 36.7423C65.7798 37.9559 63.865 37.9388 61.899 36.7081C61.7579 36.619 61.6172 36.5285 61.4763 36.4378L61.4763 36.4378C60.6437 35.9023 59.8038 35.3619 58.8388 35.0842C58.5311 34.9987 58.4969 34.7594 58.4627 34.503C57.4199 25.7509 53.6758 18.1271 48.5642 11.0845C47.111 9.0845 45.5895 7.1529 43.9312 5.32387C43.915 5.30121 43.8982 5.2804 43.8819 5.26026C43.8124 5.17403 43.7528 5.10024 43.7944 4.9478ZM30.3611 5.99096L30.3622 5.98969C30.6607 5.63519 30.9703 5.2676 31.296 4.87938C31.1458 4.89244 31.023 4.89801 30.9182 4.90278C30.7486 4.91048 30.6258 4.91606 30.5096 4.94775C27.552 5.6315 24.6628 6.53748 21.9616 7.93917C14.9181 11.5801 9.70384 16.9647 6.31885 24.1099C4.8144 27.2893 3.90832 30.6568 3.44673 34.144L3.43783 34.202C3.38759 34.5256 3.33699 34.8516 3.78865 34.9645C4.88909 35.2548 5.82556 35.8594 6.75686 36.4606L6.75734 36.461L6.75782 36.4613L6.7583 36.4616L6.75849 36.4617L6.75868 36.4618L6.75887 36.462L6.75906 36.4621C6.86874 36.5329 6.97836 36.6036 7.08816 36.6738C9.07129 37.9217 11.0031 37.9388 12.9863 36.6738L13.1923 36.5417C13.9814 36.035 14.7884 35.5168 15.6532 35.1867C16.2516 34.9474 16.4225 34.6568 16.4738 34.1098C16.6619 32.2124 17.0551 30.3491 17.568 28.5201C19.7391 20.7253 23.7909 13.9562 28.8855 7.75113C29.3618 7.17743 29.845 6.60373 30.3611 5.99096ZM43.5551 71.8357C45.1108 70.1605 46.4443 68.5537 47.6923 66.8785C52.3766 60.6051 56.0693 53.853 57.8131 46.1608C58.2234 44.3831 58.4969 42.5882 58.5824 40.7763C58.6166 40.2464 58.6337 40.0071 59.232 40.4344C61.9161 42.2805 64.8566 42.5711 67.9339 41.6994C69.0109 41.3917 69.9854 40.7592 70.9257 40.1096C70.9729 40.0796 71.019 40.0409 71.0655 40.002C71.2039 39.886 71.3448 39.7679 71.524 39.8703C71.6911 39.9731 71.6553 40.1533 71.6199 40.3308C71.6082 40.3894 71.5966 40.4477 71.5924 40.5028C71.2505 46.2292 69.5751 51.5283 66.4978 56.3829C62.959 61.9726 58.2234 66.1948 52.2569 69.1007C49.6583 70.3656 45.4869 71.6135 43.5551 71.8357ZM23.758 69.6649C26.1172 70.7247 28.5961 71.4255 31.3315 71.9042C23.2622 62.6222 17.176 52.6053 16.2016 40.1952C15.9464 40.1697 15.8055 40.2869 15.6723 40.3978L15.6722 40.3979C15.6269 40.4356 15.5825 40.4725 15.5348 40.5029C12.9534 42.1951 10.1667 42.5028 7.22622 41.7336C6.01241 41.4259 4.96956 40.7422 3.92671 40.0584C3.88592 40.0339 3.84707 40.0046 3.80855 39.9755C3.68562 39.8827 3.56595 39.7923 3.39673 39.8704C3.21689 39.9475 3.23975 40.1017 3.26223 40.2534C3.26967 40.3036 3.27706 40.3535 3.27706 40.4003C3.25997 40.708 3.27706 41.0328 3.31125 41.3405C3.9438 48.6053 6.76463 54.9642 11.4831 60.5026C14.8681 64.4684 18.9882 67.5281 23.758 69.6649ZM39.9984 49.3575C39.68 48.9667 39.6924 48.723 39.7037 48.5018L39.7038 48.5016C39.7058 48.4616 39.7078 48.4224 39.7078 48.3831C39.7078 47.4495 39.7089 46.5159 39.7099 45.582V45.5812V45.5804V45.5797V45.5789V45.5781V45.5773V45.5765V45.5751V45.5748V45.5744V45.5741V45.5738V45.5735V45.5732C39.7131 42.7654 39.7163 39.9552 39.6907 37.1354C39.6907 36.4688 39.8617 36.0072 40.3745 35.5115C43.8279 32.1953 47.23 28.862 50.6321 25.5116C51.1792 24.9646 51.3501 25.1014 51.6066 25.751C52.7007 28.6911 53.5213 31.6825 53.9145 34.7936C53.9829 35.2893 53.8803 35.6312 53.5042 35.9901C49.6234 39.6995 45.7598 43.443 41.9132 47.1866C41.4736 47.626 41.0638 48.1101 40.6495 48.5995L40.6492 48.5998L40.6489 48.6002L40.6486 48.6005L40.6484 48.6008L40.6483 48.6009L40.6483 48.6009L40.6482 48.601C40.4344 48.8535 40.2194 49.1075 39.9984 49.3575ZM32.6564 46.8557L32.6567 46.8559L32.6609 46.86L32.6613 46.8604C33.4585 47.6312 34.2622 48.4085 35.075 49.2036C35.1059 49.1186 35.1298 49.065 35.1468 49.0271C35.1673 48.9812 35.1775 48.9582 35.1775 48.9301V36.6739C35.1775 36.2978 35.0408 36.0585 34.7672 35.8021C33.3658 34.4436 31.9729 33.0808 30.58 31.718L30.5788 31.7168L30.5782 31.7161L30.5782 31.7161L30.5782 31.7161L30.5781 31.7161L30.5781 31.7161L30.5781 31.7161C29.185 30.3531 27.7919 28.99 26.3902 27.6313C25.8316 27.0938 25.273 26.5693 24.6984 26.0298C24.3409 25.6942 23.9773 25.3528 23.6036 24.9988C22.3043 28.2808 21.364 31.5457 20.9708 34.9474C20.9247 35.3932 21.1551 35.6178 21.4009 35.8575L21.4463 35.9018L21.4837 35.9389C24.441 38.8445 27.4153 41.7501 30.3897 44.6558L30.3907 44.6567C31.1394 45.3887 31.8921 46.1166 32.6509 46.8503L32.6544 46.8537L32.6548 46.8541L32.6552 46.8545L32.6556 46.8549L32.656 46.8553L32.6564 46.8557ZM21.2092 42.0584C22.7307 43.5285 24.2522 44.9986 25.7567 46.4686C26.935 47.6196 28.1107 48.7733 29.2858 49.9265L29.2912 49.9318L29.2929 49.9335C31.0648 51.6723 32.8355 53.4099 34.6124 55.1352C35.0227 55.5454 35.2107 55.9557 35.2107 56.554C35.1936 60.4343 35.1936 64.3317 35.1936 68.212V68.947C35.1594 68.9641 35.121 68.9769 35.0825 68.9897C35.044 69.0025 35.0056 69.0154 34.9714 69.0325C28.0475 61.2719 22.5768 52.7421 21.004 42.1781L21.0296 42.1607C21.0774 42.1281 21.1372 42.0872 21.2092 42.0584ZM39.7161 68.0204C39.7014 68.3359 39.6858 68.6739 39.8607 69.1178C39.9733 68.9939 40.0767 68.8793 40.1745 68.7709C40.3734 68.5503 40.5492 68.3554 40.7326 68.1605C43.2286 65.4255 45.4168 62.4683 47.3316 59.306C50.0498 54.8445 52.2552 50.1608 53.4178 45.0326C53.4348 44.9572 53.4521 44.8817 53.4695 44.806L53.4698 44.8047C53.6608 43.9714 53.8565 43.1177 53.7938 42.178C53.6058 42.2976 53.5204 42.366 53.4349 42.4343L53.4348 42.4344C51.2038 44.5882 48.9771 46.742 46.7503 48.8958C44.5236 51.0497 42.2968 53.2035 40.0658 55.3573C39.741 55.665 39.7068 56.024 39.7068 56.4342C39.7154 58.3231 39.7154 60.2119 39.7154 62.1008C39.7154 63.9897 39.7154 65.8785 39.7239 67.7674C39.7239 67.8512 39.72 67.935 39.7161 68.0204ZM39.7759 7.6144C41.5709 9.39215 42.9899 11.2212 44.3747 13.0844C46.0501 15.3066 47.5716 17.6143 48.9051 20.0758L48.9308 20.1217C49.0903 20.4062 49.2118 20.6229 48.8709 20.9476C46.6858 23.0424 44.5201 25.1469 42.3519 27.2538L42.3517 27.2539C41.6361 27.9493 40.9202 28.645 40.2033 29.3406C40.145 29.3989 40.0756 29.4406 39.9921 29.4909C39.9287 29.529 39.8571 29.5722 39.7759 29.6312V7.6144ZM35.1429 29.6483V7.59728C33.9597 8.71273 33.0606 9.82819 32.1482 10.9602L32.1481 10.9602L32.1169 10.9989C29.8603 13.8536 27.7404 16.7937 25.9966 19.9903C25.7572 20.4347 25.7572 20.6911 26.1504 21.0672C27.3812 22.238 28.5992 23.4216 29.8172 24.6052L29.8174 24.6055C31.0355 25.7893 32.2537 26.9731 33.4846 28.144C33.6339 28.2883 33.7745 28.4457 33.917 28.6051L33.917 28.6051C34.2639 28.9933 34.6218 29.3938 35.1429 29.6483Z" fill="white"/>
</g>
<defs>
<clipPath id="clip0_215_5147">
<rect width="72" height="72" fill="white" transform="translate(0 0.138672)"/>
</clipPath>
</defs>
</svg>
