<svg width="72" height="73" viewBox="0 0 72 73" fill="none" xmlns="http://www.w3.org/2000/svg">
<g clip-path="url(#clip0_215_5137)">
<rect y="0.138672" width="72" height="72" fill="#AE8BE2"/>
<path d="M49.6894 37.6997C50.7877 38.1483 51.9016 38.5969 53 39.0455C54.0829 39.4941 55.1813 39.9426 56.2333 40.4531C56.7902 40.7315 56.8212 40.484 56.8676 40.0509C57.1306 37.6997 57.4245 35.364 57.703 32.9509C58.0743 33.1056 58.1671 33.4459 58.3218 33.7089C60.9827 38.1792 63.6436 42.6651 66.3045 47.1354C66.521 47.4912 66.6603 47.8934 66.9233 48.1873C68.099 49.4712 67.8979 50.7396 67.2017 52.2245C65.9641 54.9005 64.9121 57.6694 63.8447 60.4073C63.5972 61.0415 63.2568 61.2271 62.5916 61.2116C55.9394 61.1807 49.2871 61.2116 42.6504 61.1807C41.8769 61.1807 41.6293 61.3663 41.6757 62.1552C41.7531 63.47 41.7067 64.7694 41.6912 66.0842C41.6912 66.2543 41.7067 66.5018 41.6139 66.5792C41.3973 66.7493 41.258 66.4709 41.1033 66.3626C37.7308 63.8567 34.3738 61.3509 31.0167 58.845C29.7327 57.8859 28.4486 56.896 27.1337 55.9679C26.6541 55.6276 26.7933 55.5038 27.1646 55.2254C30.2587 52.9515 33.3372 50.6777 36.4158 48.3884C38.133 47.1045 39.8502 45.8051 41.7067 44.413C41.7067 45.7742 41.7067 46.9962 41.7067 48.2027C41.7067 49.9971 41.7067 49.9971 43.5012 49.9971C47.6318 49.9971 51.7469 49.9971 55.8775 49.9971C56.1559 49.9971 56.4189 49.9971 56.8366 49.9971C54.3769 45.8361 51.979 41.7988 49.5965 37.7616C49.612 37.7771 49.6584 37.7461 49.6894 37.6997Z" fill="#FDFEFD"/>
<path d="M27.6129 61.1036C27.4118 61.3202 27.1334 61.2274 26.9013 61.2274C21.5176 61.2274 16.134 61.2119 10.7503 61.2428C10.1779 61.2428 9.89945 61.0417 9.63646 60.5467C7.93472 57.3293 6.21752 54.1119 4.46937 50.91C4.15997 50.3376 4.1445 49.9045 4.50031 49.3167C7.65626 44.0575 10.7658 38.7828 13.9217 33.5235C14.2002 33.0595 14.1693 32.8893 13.6897 32.6263C12.2045 31.822 10.7503 30.9712 9.29611 30.1359C9.12594 30.0431 8.94029 29.9503 8.84747 29.7028C14.5251 27.3052 20.1872 24.9076 25.9576 22.4636C26.7002 28.6355 27.4428 34.7146 28.2008 40.9174C26.6383 40.1904 25.3079 39.2932 23.931 38.4889C23.3586 38.1486 23.0802 38.1486 22.7398 38.7982C20.7751 42.3714 18.7639 45.9137 16.7528 49.4559C16.397 50.0901 16.66 50.0901 17.186 50.0901C20.4657 50.0747 23.7299 50.0901 27.0096 50.0901C27.2571 50.0901 27.5047 50.0901 27.9533 50.0901C26.6538 51.2503 25.3388 52.0701 24.1167 52.9982C23.0801 53.7871 22.0282 54.5605 20.9762 55.3339C20.6358 55.5814 20.543 55.7206 20.9762 56.03C23.142 57.6078 25.2769 59.2474 27.4273 60.8561C27.4737 60.9025 27.5975 60.9489 27.6129 61.1036Z" fill="#FDFEFD"/>
<path d="M55.864 17.1114C55.3535 21.3497 54.8584 25.5726 54.3479 29.8109C54.1622 31.3423 53.9766 32.8736 53.791 34.405C53.76 34.7144 53.7755 35.0237 53.5744 35.3176C47.8813 32.92 42.1882 30.507 36.3714 28.0475C37.8101 27.2277 39.156 26.4543 40.502 25.6963C41.9407 24.892 41.9407 24.8919 41.0898 23.4843C39.45 20.731 37.8256 17.9776 36.1084 15.1005C34.1127 18.6427 32.1635 22.0767 30.1059 25.7272C29.9512 24.4898 29.812 23.4534 29.6882 22.4015C29.5026 20.8392 29.3015 19.2924 29.1313 17.7301C29.0849 17.2351 28.9766 17.1578 28.4815 17.3743C26.3312 18.3179 24.1653 19.1841 21.984 20.0813C21.8757 19.8647 22.015 19.741 22.1078 19.5863C24.7996 15.0077 27.4914 10.4445 30.1678 5.86585C30.338 5.55649 30.5546 5.43274 30.9104 5.43274C34.3293 5.44821 37.7637 5.44821 41.1827 5.43274C41.5539 5.43274 41.7551 5.55649 41.9562 5.91226C44.7254 10.6456 47.5255 15.3634 50.3101 20.0968C52.1511 19.0604 53.9302 17.9467 55.8021 17.034C55.8176 17.0495 55.833 17.0804 55.864 17.1114Z" fill="#FDFEFD"/>
</g>
<defs>
<clipPath id="clip0_215_5137">
<rect width="72" height="72" fill="white" transform="translate(0 0.138672)"/>
</clipPath>
</defs>
</svg>
