<svg width="72" height="73" viewBox="0 0 72 73" fill="none" xmlns="http://www.w3.org/2000/svg">
<g clip-path="url(#clip0_215_5186)">
<rect y="0.138672" width="72" height="72.0001" fill="#EFF7E3"/>
<path d="M2.52344 71.8292C2.53951 68.7926 2.55557 65.7399 2.55557 62.7032C2.55557 61.8678 2.66804 61.0644 2.74839 60.2289C2.94121 58.2206 4.70881 57.0638 6.21929 56.7263C9.24024 56.0837 12.2451 55.2803 15.2982 54.8304C17.0979 54.5573 17.8532 53.7058 18.3352 52.083C18.9137 50.0907 19.8136 48.1948 20.8099 46.3471C21.1634 45.6884 21.0187 45.2224 20.6652 44.6762C18.9137 42.0251 17.1783 39.358 15.4428 36.707C14.8804 35.8394 14.2859 34.9717 14.1894 33.8953C14.0448 32.3368 14.6394 31.0996 15.7321 30.0231C19.2351 26.5848 22.7221 23.1304 26.2251 19.6921C28.6033 17.3463 30.9654 15.0006 33.3275 12.6387C34.7255 11.2409 37.1037 10.9678 38.8713 12.0764C41.8762 13.9562 44.865 15.8682 47.8538 17.7801C48.4323 18.1497 48.9144 18.2622 49.5893 17.9247C52.0317 16.7358 54.5385 15.6593 57.1417 14.856C57.6237 14.7114 57.688 14.3258 57.7844 13.9402C58.5075 10.6786 59.2628 7.43305 59.9216 4.1554C60.2912 2.32377 61.1268 0.942018 62.8461 0.138672C67.3454 0.138672 71.8447 0.138672 76.344 0.138672C76.344 0.588545 76.328 1.03842 76.328 1.50436C76.328 25.0263 76.328 48.5483 76.328 72.0542C75.9745 72.0703 75.637 72.0863 75.2835 72.0863C51.3408 72.0863 27.3981 72.0863 3.45544 72.0863C3.118 72.0863 2.7002 72.3113 2.52344 71.8292Z" fill="#AE8BE2"/>
</g>
<defs>
<clipPath id="clip0_215_5186">
<rect width="72" height="72" fill="white" transform="translate(0 0.138672)"/>
</clipPath>
</defs>
</svg>
