<svg width="72" height="73" viewBox="0 0 72 73" fill="none" xmlns="http://www.w3.org/2000/svg">
<g clip-path="url(#clip0_215_5156)">
<rect x="-8" y="-7.86133" width="90" height="87" fill="#AE8BE2"/>
<path d="M38.7047 62.858C35.3588 62.7374 32.9776 61.1852 31.6362 58.1261C28.7726 51.6311 25.9392 45.1211 23.0907 38.611C21.7795 35.6122 20.408 32.6284 19.1872 29.5994C18.7953 28.635 18.2075 28.0021 17.3937 27.4294C15.4495 26.043 13.5354 24.6114 11.6364 23.1647C11.2144 22.8483 11.0034 22.8634 10.702 23.3004C9.96346 24.3402 9.07425 24.4758 8.07953 23.7675C6.75324 22.8181 6.5121 22.0345 7.3561 20.9043C9.99361 17.3328 12.6462 13.7613 15.3138 10.2049C16.0523 9.2254 16.9265 9.18019 17.891 9.96381C19.2927 11.094 19.353 11.4256 18.3884 13.0079C18.2075 13.2942 18.2829 13.3997 18.5391 13.5956C20.8752 15.2984 23.1962 17.0164 25.5172 18.7343C25.6528 18.8398 25.7885 18.9453 25.9844 18.9453C29.0439 19.096 32.0582 19.5782 35.1026 19.8796C37.6648 20.1207 40.2269 20.5125 42.7891 20.7988C45.9239 21.1605 49.0738 21.4468 52.2087 21.8236C54.6654 22.1249 57.1823 22.14 59.5786 22.7579C63.1506 23.6922 65.5922 27.2637 65.0647 31.1516C64.8838 32.5531 64.2809 33.7737 63.452 34.8889C58.2071 41.9264 52.9774 48.9488 47.7476 55.9863C46.8282 57.222 45.9239 58.4878 44.9744 59.7084C43.3768 61.7579 41.3422 62.8881 38.7047 62.858Z" fill="#FDFEFD"/>
</g>
<defs>
<clipPath id="clip0_215_5156">
<rect width="72" height="72" fill="white" transform="translate(0 0.138672)"/>
</clipPath>
</defs>
</svg>
