<svg width="101" height="48" viewBox="0 0 101 48" fill="none" xmlns="http://www.w3.org/2000/svg">
<path d="M0.557824 40.2617H0.124023V36.3206H0.557824V37.9216H2.91269V36.3206H3.34649V40.2001H2.91269V38.2911H0.557824V40.2617Z" fill="white"/>
<path d="M4.8337 40.2617H4.3999L6.13509 36.3206H6.50689L8.24208 40.2617H7.80828L7.31252 39.2148H5.26748L4.8337 40.2617ZM6.32099 36.8132L5.45341 38.7838H7.25055L6.32099 36.8132Z" fill="white"/>
<path d="M9.79147 40.3233C9.60556 40.3233 9.41963 40.3232 9.29569 40.2617V39.8922C9.41963 39.9538 9.54358 39.9538 9.72949 39.9538C9.9154 39.9538 10.1013 39.8922 10.2252 39.7075C10.2872 39.6459 10.3492 39.5227 10.4112 39.4611C10.4112 39.3996 10.4731 39.338 10.5971 39.1532L8.98584 36.3206H9.41964L10.721 38.7222L11.8365 36.3206H12.2703L10.845 39.3996C10.721 39.7075 10.5351 39.9538 10.3492 40.0769C10.2253 40.2617 10.0393 40.3233 9.79147 40.3233Z" fill="white"/>
<path d="M16.1743 40.2617H15.7405V38.4759C15.3687 38.599 14.9968 38.6606 14.625 38.6606C14.1912 38.6606 13.8194 38.5374 13.5715 38.3527C13.3237 38.1679 13.1997 37.86 13.1997 37.429V36.3206H13.6335V37.3674C13.6335 37.6753 13.6955 37.9216 13.8814 38.1064C14.0673 38.2295 14.3152 38.2911 14.687 38.2911C15.0588 38.2911 15.3687 38.2295 15.7405 38.0448V36.3206H16.1743V40.2617V40.2617Z" fill="white"/>
<path d="M18.0334 40.2617H17.5996V36.3206H18.0334V37.9216H20.3883V36.3206H20.8221V40.2001H20.3883V38.2911H18.0334V40.2617Z" fill="white"/>
<path d="M22.5573 36.8748C22.9291 36.5053 23.4248 36.3206 23.9826 36.3206C24.5403 36.3206 25.0361 36.5053 25.4079 36.8748C25.7797 37.2443 25.9656 37.7369 25.9656 38.2911C25.9656 38.8453 25.7797 39.338 25.4079 39.7075C25.0361 40.0769 24.5403 40.2617 23.9826 40.2617C23.4248 40.2617 22.9291 40.0769 22.5573 39.7075C22.1854 39.338 21.9995 38.8453 21.9995 38.2911C21.9995 37.7369 22.1854 37.2443 22.5573 36.8748ZM22.8671 39.4611C23.177 39.769 23.5488 39.9538 23.9826 39.9538C24.4164 39.9538 24.7882 39.769 25.098 39.4611C25.4079 39.1532 25.5318 38.7838 25.5318 38.2911C25.5318 37.8601 25.4079 37.429 25.098 37.1211C24.7882 36.8132 24.4164 36.6285 23.9826 36.6285C23.5488 36.6285 23.177 36.8132 22.8671 37.1211C22.5573 37.429 22.4333 37.7985 22.4333 38.2911C22.4333 38.7222 22.5573 39.1532 22.8671 39.4611Z" fill="white"/>
<path d="M28.7543 38.2914H27.2051V37.9219H28.7543V38.2914Z" fill="white"/>
<path d="M30.4274 40.2617H29.9937V36.3206H33.0922V40.2001H32.6584V36.69H30.4274V40.2617Z" fill="white"/>
<path d="M34.9514 40.2617H34.5176V36.3206H36.1908C36.5626 36.3206 36.8725 36.4437 37.1203 36.6285C37.3682 36.8132 37.4302 37.0595 37.4302 37.429C37.4302 37.7369 37.3063 38.0448 37.1203 38.2295C36.8725 38.4143 36.5626 38.5374 36.1908 38.5374H34.9514V40.2617ZM34.9514 36.69V38.1064H36.1288C36.3767 38.1064 36.6246 38.0448 36.7485 37.9216C36.8725 37.7985 36.9964 37.6137 36.9964 37.3674C36.9964 37.1211 36.9344 36.9363 36.7485 36.8132C36.5626 36.69 36.3767 36.6285 36.1288 36.6285H34.9514V36.69Z" fill="white"/>
<path d="M38.9794 36.8748C39.3512 36.5053 39.847 36.3206 40.4047 36.3206C40.9624 36.3206 41.4582 36.5053 41.83 36.8748C42.2018 37.2443 42.3878 37.7369 42.3878 38.2911C42.3878 38.8453 42.2018 39.338 41.83 39.7075C41.4582 40.0769 40.9624 40.2617 40.4047 40.2617C39.847 40.2617 39.3512 40.0769 38.9794 39.7075C38.6076 39.338 38.4216 38.8453 38.4216 38.2911C38.4216 37.7369 38.6076 37.2443 38.9794 36.8748ZM39.2892 39.4611C39.5991 39.769 39.9709 39.9538 40.4047 39.9538C40.8385 39.9538 41.2103 39.769 41.5202 39.4611C41.83 39.1532 41.954 38.7838 41.954 38.2911C41.954 37.8601 41.83 37.429 41.5202 37.1211C41.2103 36.8132 40.8385 36.6285 40.4047 36.6285C39.9709 36.6285 39.5991 36.8132 39.2892 37.1211C38.9794 37.429 38.8554 37.7985 38.8554 38.2911C38.8554 38.7222 38.9794 39.1532 39.2892 39.4611Z" fill="white"/>
<path d="M43.937 40.2617H43.5652V36.3206H43.999V39.5227L46.4158 36.3206H46.7876V40.2001H46.3539V36.9979L43.937 40.2617Z" fill="white"/>
<path d="M49.2045 40.3234C48.7087 40.3234 48.2129 40.2002 47.9031 40.0155V39.5844C48.2749 39.8307 48.7087 39.9539 49.1425 39.9539C49.5143 39.9539 49.8242 39.8923 50.0101 39.7076C50.258 39.5844 50.3199 39.3381 50.3199 39.0918C50.3199 38.8455 50.196 38.6607 50.0101 38.5376C49.8242 38.4144 49.5143 38.2912 49.2045 38.2912H48.7087V37.9218H49.2664C49.5143 37.9218 49.7622 37.8602 49.8861 37.737C50.072 37.6139 50.134 37.4907 50.134 37.2444C50.134 37.0596 50.072 36.8749 49.8861 36.7517C49.7002 36.6286 49.4523 36.567 49.2045 36.567C48.8326 36.567 48.4608 36.6286 48.027 36.8133V36.4438C48.3988 36.2591 48.8326 36.1975 49.2045 36.1975C49.5763 36.1975 49.9481 36.2591 50.196 36.4438C50.4439 36.6286 50.5678 36.8749 50.5678 37.1828C50.5678 37.4291 50.5058 37.6139 50.3819 37.737C50.258 37.8602 50.134 37.9833 49.9481 38.0449C50.196 38.1065 50.3819 38.2297 50.5058 38.4144C50.6917 38.5991 50.7537 38.7839 50.7537 39.0918C50.7537 39.4613 50.6298 39.7076 50.3199 39.9539C50.072 40.2002 49.7002 40.3234 49.2045 40.3234Z" fill="white"/>
<path d="M53.9143 40.2617H52.0552V36.3206H53.7284C54.1002 36.3206 54.3481 36.3821 54.534 36.5669C54.7199 36.7516 54.8438 36.9979 54.8438 37.2443C54.8438 37.429 54.7819 37.6137 54.7199 37.7369C54.6579 37.86 54.472 37.9832 54.3481 38.0448C54.596 38.1064 54.8438 38.2295 54.9678 38.4143C55.0917 38.599 55.2157 38.8453 55.2157 39.0917C55.2157 39.3996 55.0917 39.7074 54.8438 39.8922C54.596 40.1385 54.2861 40.2617 53.9143 40.2617ZM52.427 36.69V37.9832H53.6664C53.9143 37.9832 54.1002 37.9216 54.2241 37.7985C54.3481 37.6753 54.4101 37.5522 54.4101 37.3058C54.4101 37.1211 54.3481 36.9363 54.2241 36.8132C54.1002 36.69 53.9143 36.6285 53.6664 36.6285H52.427V36.69ZM52.427 38.3527V39.8922H53.7904C54.1002 39.8922 54.2861 39.8306 54.472 39.7075C54.6579 39.5843 54.7199 39.3996 54.7199 39.1532C54.7199 38.9069 54.6579 38.7222 54.472 38.599C54.2861 38.4759 54.1002 38.4143 53.7904 38.4143H52.427V38.3527Z" fill="white"/>
<path d="M56.765 36.8748C57.1368 36.5053 57.6326 36.3206 58.1903 36.3206C58.7481 36.3206 59.2438 36.5053 59.6156 36.8748C59.9875 37.2443 60.1734 37.7369 60.1734 38.2911C60.1734 38.8453 59.9875 39.338 59.6156 39.7075C59.2438 40.0769 58.7481 40.2617 58.1903 40.2617C57.6326 40.2617 57.1368 40.0769 56.765 39.7075C56.3932 39.338 56.2073 38.8453 56.2073 38.2911C56.2073 37.7369 56.3932 37.2443 56.765 36.8748ZM57.0749 39.4611C57.3847 39.769 57.7565 39.9538 58.1903 39.9538C58.6241 39.9538 58.9959 39.769 59.3058 39.4611C59.6156 39.1532 59.7396 38.7838 59.7396 38.2911C59.7396 37.8601 59.6156 37.429 59.3058 37.1211C58.9959 36.8132 58.6241 36.6285 58.1903 36.6285C57.7565 36.6285 57.3847 36.8132 57.0749 37.1211C56.765 37.429 56.6411 37.7985 56.6411 38.2911C56.6411 38.7222 56.765 39.1532 57.0749 39.4611Z" fill="white"/>
<path d="M61.1648 41.1238H60.793V39.8922H61.1648C61.4127 39.5843 61.5986 39.1532 61.6606 38.7222C61.7845 38.2911 61.8465 37.6137 61.8465 36.8748V36.3206H64.2633V39.8306H64.883V41.0622H64.5112V40.2001H61.2268V41.1238H61.1648ZM61.6606 39.8922H63.8915V36.7516H62.2803V36.9979C62.2803 38.2911 62.0324 39.2764 61.6606 39.8922Z" fill="white"/>
<path d="M67.6718 40.3233C67.114 40.3233 66.6183 40.1385 66.2465 39.769C65.8746 39.3996 65.6887 38.9069 65.6887 38.2911C65.6887 37.7369 65.8746 37.2443 66.2465 36.8748C66.6183 36.5053 67.114 36.3206 67.6718 36.3206C68.1056 36.3206 68.4774 36.4437 68.7872 36.6285V37.0595C68.4154 36.8132 68.1056 36.7516 67.6718 36.7516C67.238 36.7516 66.8662 36.9364 66.5563 37.2443C66.2465 37.5522 66.1225 37.9216 66.1225 38.4143C66.1225 38.9069 66.2465 39.2764 66.5563 39.5843C66.8662 39.8922 67.238 40.0769 67.7338 40.0769C68.1675 40.0769 68.6013 39.9538 68.9112 39.7075V40.1385C68.4774 40.2001 68.1056 40.3233 67.6718 40.3233Z" fill="white"/>
<path d="M71.514 40.2617H71.0802V36.7516H69.7168V36.3206H72.8773V36.69H71.514V40.2617V40.2617Z" fill="white"/>
<path d="M75.8518 40.2617H73.9927V36.3206H75.6659C76.0377 36.3206 76.2856 36.3821 76.4715 36.5669C76.6574 36.7516 76.7814 36.9979 76.7814 37.2443C76.7814 37.429 76.7194 37.6137 76.6574 37.7369C76.5954 37.86 76.4095 37.9832 76.2856 38.0448C76.5335 38.1064 76.7813 38.2295 76.9053 38.4143C77.0292 38.599 77.1532 38.8453 77.1532 39.0917C77.1532 39.3996 77.0292 39.7074 76.7814 39.8922C76.5335 40.1385 76.2236 40.2617 75.8518 40.2617ZM74.3645 36.69V37.9832H75.6039C75.8518 37.9832 76.0377 37.9216 76.1616 37.7985C76.2856 37.6753 76.3476 37.5522 76.3476 37.3058C76.3476 37.1211 76.2856 36.9363 76.1616 36.8132C76.0377 36.69 75.8518 36.6285 75.6039 36.6285H74.3645V36.69ZM74.3645 38.3527V39.8922H75.7278C76.0377 39.8922 76.2236 39.8306 76.4095 39.7075C76.5954 39.5843 76.6574 39.3996 76.6574 39.1532C76.6574 38.9069 76.5954 38.7222 76.4095 38.599C76.2236 38.4759 76.0377 38.4143 75.7278 38.4143H74.3645V38.3527Z" fill="white"/>
<path d="M81.0572 40.2617H78.2686V36.3206H80.9333V36.69H78.6404V37.9216H80.4995V38.2911H78.6404V39.8306H80.9952V40.2617H81.0572Z" fill="white"/>
<path d="M82.6067 40.2617H82.1729V36.3206H82.6067V37.9216H84.9615V36.3206H85.3953V40.2001H84.9615V38.2911H82.6067V40.2617V40.2617Z" fill="white"/>
<path d="M87.1923 40.2617H86.7585V36.3206H87.1923V37.9216H89.5472V36.3206H89.981V40.2001H89.5472V38.2911H87.1923V40.2617Z" fill="white"/>
<path d="M91.7162 36.8748C92.088 36.5053 92.5837 36.3206 93.1415 36.3206C93.6992 36.3206 94.195 36.5053 94.5668 36.8748C94.9386 37.2443 95.1245 37.7369 95.1245 38.2911C95.1245 38.8453 94.9386 39.338 94.5668 39.7075C94.195 40.0769 93.6992 40.2617 93.1415 40.2617C92.5837 40.2617 92.088 40.0769 91.7162 39.7075C91.3443 39.338 91.1584 38.8453 91.1584 38.2911C91.1584 37.7369 91.3443 37.2443 91.7162 36.8748ZM92.026 39.4611C92.3359 39.769 92.7077 39.9538 93.1415 39.9538C93.5753 39.9538 93.9471 39.769 94.257 39.4611C94.5668 39.1532 94.6907 38.7838 94.6907 38.2911C94.6907 37.8601 94.5668 37.429 94.257 37.1211C93.9471 36.8132 93.5753 36.6285 93.1415 36.6285C92.7077 36.6285 92.3359 36.8132 92.026 37.1211C91.7162 37.429 91.5922 37.7985 91.5922 38.2911C91.5302 38.7222 91.7162 39.1532 92.026 39.4611Z" fill="white"/>
<path d="M99.0907 40.2617H96.302V36.3206H98.9667V36.69H96.6738V37.9216H98.5329V38.2911H96.6738V39.8306H99.0287V40.2617H99.0907Z" fill="white"/>
<path d="M0.557749 43.5254C0.929571 43.1559 1.42533 42.9712 1.98306 42.9712C2.54079 42.9712 3.03655 43.1559 3.40837 43.5254C3.78019 43.8949 3.96612 44.3875 3.96612 44.9418C3.96612 45.496 3.78019 45.9886 3.40837 46.3581C3.03655 46.7276 2.54079 46.9123 1.98306 46.9123C1.42533 46.9123 0.929571 46.7276 0.557749 46.3581C0.185926 45.9886 0 45.496 0 44.9418C0 44.3875 0.185926 43.8949 0.557749 43.5254ZM0.867601 46.1734C1.17745 46.4813 1.54927 46.666 1.98306 46.666C2.41685 46.666 2.78867 46.4813 3.09852 46.1734C3.40837 45.8655 3.53232 45.496 3.53232 45.0033C3.53232 44.5723 3.40837 44.1412 3.09852 43.8333C2.78867 43.5254 2.41685 43.3407 1.98306 43.3407C1.54927 43.3407 1.17745 43.5254 0.867601 43.8333C0.557749 44.1412 0.4338 44.5107 0.4338 45.0033C0.37183 45.4344 0.557749 45.8039 0.867601 46.1734Z" fill="white"/>
<path d="M6.75479 46.9125H5.14355V43.033H7.80828V43.4024H5.51538V44.5109H6.69282C7.12661 44.5109 7.49843 44.634 7.68435 44.8188C7.93223 45.0651 8.05615 45.3114 8.05615 45.6809C8.05615 46.0504 7.93223 46.3583 7.68435 46.543C7.49843 46.8509 7.18858 46.9125 6.75479 46.9125ZM5.57734 44.8804V46.543H6.75479C7.06464 46.543 7.31251 46.4815 7.49842 46.2967C7.68433 46.1736 7.7463 45.9272 7.7463 45.6809C7.7463 45.4346 7.68433 45.1883 7.49842 45.0651C7.31251 44.942 7.06464 44.8188 6.75479 44.8188H5.57734V44.8804Z" fill="white"/>
<path d="M11.5885 46.9125H9.97731V43.4024H8.92383V43.033H10.4111V44.5109H11.5885C12.0223 44.5109 12.3942 44.634 12.6421 44.8804C12.8899 45.1267 13.0139 45.373 13.0139 45.7425C13.0139 46.112 12.8899 46.4199 12.6421 46.6046C12.3942 46.7894 12.0223 46.9125 11.5885 46.9125ZM10.4111 44.8804V46.6046H11.5266C11.8364 46.6046 12.0843 46.543 12.2702 46.3583C12.4561 46.2351 12.5181 45.9888 12.5181 45.7425C12.5181 45.4962 12.4561 45.2498 12.2702 45.1267C12.0843 45.0035 11.8364 44.8804 11.5266 44.8804H10.4111V44.8804Z" fill="white"/>
<path d="M16.8561 46.9125H14.0674V43.033H16.7321V43.4024H14.4392V44.634H16.2983V45.0035H14.4392V46.543H16.7941V46.9125H16.8561Z" fill="white"/>
<path d="M18.1575 47.7746H17.7856V46.543H18.1575C18.4054 46.2351 18.5913 45.8041 18.6532 45.373C18.7772 44.9419 18.8391 44.2646 18.8391 43.5256V43.033H21.256V46.543H21.8757V47.7746H21.5039V46.9125H18.2194V47.7746H18.1575ZM18.5913 46.543H20.8222V43.4024H19.211V43.6488C19.211 45.0035 19.025 45.9888 18.5913 46.543Z" fill="white"/>
<path d="M23.239 46.9125H22.8672V43.033H23.301V46.2351L25.7178 43.033H26.0896V46.9125H25.6559V43.7103L23.239 46.9125Z" fill="white"/>
<path d="M27.9487 46.9125H27.5149V43.033H27.9487V44.634H30.3036V43.033H30.7373V46.9125H30.3036V45.0035H27.9487V46.9125Z" fill="white"/>
<path d="M34.8893 46.9125H32.1006V43.033H34.7653V43.4024H32.4724V44.634H34.3315V45.0035H32.4724V46.543H34.8273V46.9125H34.8893Z" fill="white"/>
<path d="M36.4387 46.9125H36.0049V43.033H36.4387V44.634H38.7936V43.033H39.2274V46.9125H38.7936V45.0035H36.4387V46.9125Z" fill="white"/>
<path d="M40.9004 46.9125H40.5286V43.033H40.9623V46.2351L43.3792 43.033H43.751V46.9125H43.3172V43.7103L40.9004 46.9125Z" fill="white"/>
<path d="M47.9652 46.9125H45.1765V43.033H47.8412V43.4024H45.5483V44.634H47.4074V45.0035H45.5483V46.543H47.9032V46.9125H47.9652Z" fill="white"/>
<path d="M100.268 30.0396H0.248047V31.7638H100.268V30.0396Z" fill="white"/>
<path d="M77.8349 23.5734L67.238 0.727295H65.6887L55.0918 23.5734H60.2973L61.5987 20.6176L63.086 17.2923L66.1225 20.8639H71.39V20.8023L72.6294 23.635H77.8349V23.5734ZM63.1479 17.2307L63.3958 16.7381L66.5563 9.04059L69.6548 16.7381L69.9027 17.2307H63.1479Z" fill="white"/>
<path d="M99.5865 5.09942C99.1527 4.17572 98.595 3.43676 97.8513 2.75938C97.1077 2.14359 96.1781 1.58937 95.1866 1.28147C94.1331 0.91199 93.0177 0.788818 91.7782 0.788818H82.8545V11.5037H87.6882V4.91468H91.7163C92.8317 4.91468 93.7613 5.22258 94.381 5.83838C95.0007 6.45418 95.3105 7.19313 95.3105 8.17841C95.3105 9.16369 95.0007 9.96425 94.381 10.58C93.7613 11.1958 92.8937 11.5037 91.7163 11.5037H87.6882V15.4449H82.8545V23.635H87.6882V15.568H91.7782C93.0177 15.568 94.1331 15.3833 95.1866 15.0138C96.2401 14.6443 97.1077 14.1517 97.8513 13.4743C98.595 12.7969 99.2147 12.058 99.5865 11.1343C100.02 10.2106 100.206 9.22529 100.206 8.11685C100.206 7.00841 100.02 5.96154 99.5865 5.09942Z" fill="white"/>
<path d="M44.2472 0.727295H35.1995V11.319L44.2472 0.727295Z" fill="white"/>
<path d="M0.248047 0.727295V11.3806C0.619869 5.46894 5.70144 0.78886 11.9605 0.78886C18.4054 0.78886 23.6729 5.83843 23.6729 12.1196C23.6729 18.4007 18.4054 23.4503 11.9605 23.4503C6.56903 23.4503 2.04518 19.9402 0.681828 15.1986H4.95778C6.19719 17.7849 8.86193 19.5707 11.9605 19.5707C16.2364 19.5707 19.6448 16.2454 19.6448 12.1196C19.6448 7.99373 16.1744 4.66841 11.9605 4.66841C7.93237 4.66841 4.64795 7.62424 4.27612 11.3806H0.248047V23.5734H30.4276V0.727295H0.248047V0.727295ZM15.4928 11.3806L18.7152 15.137H13.1379L9.91542 11.3806H15.4928Z" fill="white"/>
<path d="M50.0104 0.727295L40.9627 11.4422H35.1995V11.6885V15.3833V23.5734H45.3626L38.36 15.3833H44.2471L51.1878 23.5734V0.727295H50.0104Z" fill="white"/>
</svg>
