<svg width="63" height="12" viewBox="0 0 63 12" fill="none" xmlns="http://www.w3.org/2000/svg">
<g clip-path="url(#clip0_215_5360)">
<path fill-rule="evenodd" clip-rule="evenodd" d="M62.993 3.96882C62.989 4.19582 62.785 4.37982 62.535 4.37982H61.122C60.976 4.41182 60.828 4.44382 60.679 4.47482C60.575 4.55182 60.508 4.66682 60.508 4.79782V10.8998C60.508 11.1288 60.598 11.3178 60.346 11.3178H58.49C58.238 11.3178 58.032 11.1288 58.032 10.8998V5.02582V4.79782C58.032 4.75382 58.022 4.71282 58.009 4.67382C57.95 4.50382 57.83 4.37982 57.626 4.37982H55.996C55.744 4.37982 55.538 4.19182 55.538 3.96282V2.79782C55.538 2.56882 55.744 2.38082 55.996 2.38082H62.535C62.6 2.38082 62.662 2.39382 62.718 2.41582C62.88 2.48082 62.993 2.62782 62.993 2.79782V3.96282V3.96882ZM53.855 11.3148H52.294C52.042 11.3148 51.837 11.1278 51.837 10.8978V9.34782C51.837 9.11882 51.72 9.06082 51.577 9.21882C51.577 9.21882 51.577 9.21882 51.401 9.38782C51.225 9.55682 51.031 9.72482 50.819 9.89382C50.739 9.95982 50.655 10.0248 50.57 10.0908H50.571L50.57 10.0918C50.498 10.1488 50.425 10.2048 50.351 10.2618C50.292 10.3068 50.233 10.3488 50.174 10.3928C49.614 10.7678 48.646 11.3558 47.145 11.3148H46.454C46.202 11.3148 45.996 11.1278 45.996 10.8978V7.41282V6.37582V2.79582C45.996 2.56682 46.202 2.37882 46.454 2.37882H48.066C48.318 2.37882 48.524 2.56682 48.524 2.79582V6.16282V6.99082V8.35682C48.524 8.58582 48.668 8.68882 48.845 8.58482C48.845 8.58482 48.949 8.58482 49.116 8.47282C49.283 8.36082 49.455 8.23582 49.631 8.09882C49.913 7.89082 50.19 7.65982 50.463 7.40682C50.736 7.15382 50.991 6.89882 51.229 6.64182C51.278 6.58682 51.325 6.53282 51.372 6.47782C51.434 6.40582 51.495 6.33382 51.553 6.26282C51.654 6.13882 51.749 6.01582 51.837 5.89482V5.85682V2.79582C51.837 2.56682 52.042 2.37882 52.294 2.37882H53.855C54.106 2.37882 54.312 2.56682 54.312 2.79582V5.53082V5.71782V10.8978C54.312 11.1278 54.106 11.3148 53.855 11.3148ZM51.749 1.50882C51.305 1.75982 50.803 1.88482 50.241 1.88482C49.691 1.88482 49.194 1.75982 48.75 1.50882C48.551 1.39582 48.39 1.26482 48.262 1.11582C47.854 0.599816 48.399 0.486816 48.399 0.486816H51.948C52.269 0.486816 52.434 0.709816 52.314 0.980816C52.314 0.980816 52.192 1.25782 51.749 1.50882ZM44.302 11.3178H42.687C42.208 11.3178 42.071 11.0358 42.031 10.9078C42.027 10.8888 42.023 10.8698 42.019 10.8488C42.01 10.8058 42 10.7548 41.99 10.6988H39.371V8.68382H41.467C41.383 8.40882 41.298 8.13682 41.223 7.89782C41.194 7.80282 41.165 7.70882 41.14 7.62582C41.139 7.59782 41.135 7.57082 41.127 7.54182C41.127 7.54182 41.116 7.50682 41.058 7.34582C41.051 7.32682 41.044 7.30582 41.035 7.28282C40.956 7.06582 40.877 6.85682 40.797 6.65682L40.791 6.64182C40.652 6.30282 40.52 6.01182 40.395 5.77082C40.267 5.52682 40.185 5.36782 40.15 5.29482C39.92 5.74182 39.71 6.21082 39.514 6.69482C39.485 6.76682 39.453 6.83682 39.424 6.90882C39.271 7.29982 39.133 8.01282 39.002 8.40282C38.95 8.40682 38.899 8.40982 38.848 8.41382H38.514H38.363H36.227C36.367 7.97182 36.516 7.21382 36.673 6.78382C36.902 6.15282 37.149 5.53282 37.416 4.92882C37.805 4.04982 38.203 3.29582 38.611 2.66682C38.663 2.59182 38.846 2.38082 39.263 2.38082H41C41.252 2.38082 41.563 2.54282 41.691 2.73882C41.691 2.73882 42.147 3.44282 42.442 4.00082C42.736 4.55882 43.003 5.11882 43.241 5.68082C43.357 5.95582 43.465 6.22882 43.569 6.49982C43.711 6.87382 43.842 7.24482 43.963 7.61282C44.079 7.96882 44.189 8.32282 44.284 8.67382L44.287 8.68382H44.302V8.74282C44.509 9.50982 44.677 10.2188 44.806 10.8688C44.824 11.0108 44.804 11.3178 44.302 11.3178ZM35.504 4.20982C35.504 4.20982 35.504 4.20982 35.282 4.18282C35.06 4.15582 34.824 4.14682 34.573 4.15682C33.606 4.19282 32.872 4.46282 32.371 4.96782C31.881 5.46082 31.65 6.09182 31.674 6.85682C31.675 6.87282 31.674 6.88882 31.674 6.90582C31.709 7.66182 31.903 8.22082 32.257 8.58182C32.611 8.94282 32.994 9.19082 33.407 9.32482C33.626 9.38782 33.84 9.47682 34.049 9.49582C34.217 9.51282 34.367 9.51982 34.5 9.51882H38.148V10.8948V11.3778V11.4128H35.596L25.899 11.4258H25.762H25.76H25.571C25.423 11.4218 25.249 11.4098 25.142 11.4028C23.912 11.3088 22.98 10.9828 22.349 10.3268C21.554 9.50082 21.09 8.57282 20.957 7.54482C20.945 7.46682 20.934 7.38582 20.927 7.30282C20.918 7.21982 20.912 7.13982 20.909 7.06182C20.902 6.92082 20.902 6.78382 20.907 6.64782C20.942 5.49182 21.358 4.51682 22.159 3.72382C23.053 2.83682 24.342 2.36282 26.027 2.29882C26.372 2.28582 26.695 2.29082 26.994 2.31582C27.294 2.33882 27.579 2.37882 27.85 2.43082L27.918 3.92382C27.928 4.14882 27.768 4.29982 27.563 4.25782C27.563 4.25782 27.563 4.25782 27.341 4.23082C27.119 4.20482 26.883 4.19582 26.633 4.20482C25.665 4.24182 24.931 4.51182 24.431 5.01682C23.974 5.47582 23.743 6.05582 23.733 6.75182C23.732 6.81982 23.73 6.88582 23.734 6.95382C23.768 7.70982 23.962 8.26982 24.316 8.63182C24.67 8.99182 25.053 9.23982 25.466 9.37382C25.685 9.43682 25.899 9.47782 26.108 9.49782C26.276 9.51382 26.426 9.52082 26.56 9.51982L29.673 9.51382C29.252 8.89082 28.991 8.21882 28.898 7.49582C28.885 7.41782 28.875 7.33682 28.867 7.25382C28.859 7.17182 28.853 7.09082 28.849 7.01182C28.847 6.95782 28.847 6.90382 28.846 6.85182C28.825 5.58382 29.242 4.52482 30.099 3.67482C30.993 2.78882 32.283 2.31282 33.967 2.24982C34.313 2.23682 34.635 2.24282 34.935 2.26682C35.235 2.29082 35.519 2.32982 35.79 2.38182L35.858 3.87482C35.869 4.09982 35.709 4.25082 35.504 4.20982ZM18.429 10.3228C17.447 11.1148 16.243 11.5098 14.817 11.5098C13.373 11.5098 12.164 11.1148 11.191 10.3228C10.218 9.53282 9.732 8.37482 9.732 6.84882C9.732 6.57482 9.748 6.31382 9.779 6.06282C9.789 5.98582 9.804 5.91082 9.817 5.83482C9.991 4.79482 10.446 3.96782 11.191 3.36182C12.164 2.57082 13.373 2.17582 14.817 2.17582C16.243 2.17582 17.447 2.57082 18.429 3.36182C19.357 4.10982 19.846 5.18982 19.897 6.60182C19.899 6.68282 19.902 6.76482 19.902 6.84882C19.902 7.16082 19.88 7.45482 19.839 7.73582C19.68 8.83082 19.211 9.69382 18.429 10.3228ZM17.014 6.44182C16.959 5.90182 16.796 5.41882 16.521 4.99382C16.177 4.46382 15.609 4.19982 14.817 4.19982C14.007 4.19982 13.434 4.46382 13.1 4.99382C12.887 5.33182 12.744 5.70482 12.667 6.11382C12.634 6.29182 12.611 6.47582 12.603 6.66782C12.601 6.72782 12.598 6.78782 12.598 6.84882C12.598 7.55582 12.768 8.17382 13.107 8.70382C13.445 9.23382 14.016 9.49882 14.817 9.49882C15.609 9.49882 16.177 9.23382 16.521 8.70382C16.773 8.31382 16.932 7.87482 16.999 7.38882C17.023 7.21482 17.036 7.03482 17.036 6.84882C17.036 6.70882 17.027 6.57382 17.014 6.44182ZM4.601 9.29382C4.558 9.29382 4.515 9.29282 4.471 9.29182C4.159 9.28482 4.152 8.96282 4.152 8.96282V7.51182C4.152 7.33182 4.283 7.28682 4.351 7.27482L4.364 7.27382C4.379 7.27182 4.39 7.27182 4.39 7.27182L4.389 7.27082C4.721 7.22682 5.004 7.11782 5.235 6.93982C5.543 6.70282 5.698 6.33982 5.698 5.84882C5.698 5.79282 5.691 5.69882 5.678 5.56582C5.671 5.49382 5.651 5.41782 5.621 5.33982C5.597 5.27482 5.566 5.20782 5.526 5.13882C5.498 5.08982 5.467 5.04282 5.433 4.99982C5.425 4.98982 5.414 4.97882 5.405 4.96782C5.378 4.93682 5.35 4.90582 5.321 4.87682L5.306 4.86182L5.299 4.85882C4.885 4.48482 4.234 4.40282 3.967 4.38582L3.962 4.38282C3.947 4.38182 3.931 4.38282 3.916 4.38182C3.873 4.37982 3.847 4.37982 3.847 4.37982L3.848 4.38082C3.826 4.37982 3.805 4.37982 3.783 4.37982H2.986C2.734 4.37982 2.528 4.56682 2.528 4.79782V4.84582V10.8998C2.528 11.1288 2.322 11.3178 2.07 11.3178H0.458C0.206 11.3178 0 11.1288 0 10.8998V4.28382V2.79782C0 2.65482 0.08 2.52782 0.202 2.45282C0.275 2.40682 0.363 2.38082 0.458 2.38082H3.84C4.092 2.38082 4.502 2.40582 4.751 2.43682C4.751 2.43682 5.213 2.49582 5.767 2.62282H5.768C5.936 2.66182 6.111 2.70582 6.285 2.75782C6.874 2.96282 7.819 3.45982 8.333 4.61282C8.436 4.87082 8.505 5.13882 8.537 5.41582C8.546 5.48782 8.553 5.56282 8.557 5.63782C8.559 5.66582 8.559 5.69082 8.559 5.71782C8.56 5.74882 8.562 5.78182 8.562 5.81382C8.562 5.82882 8.564 5.84582 8.564 5.86182C8.564 6.82482 8.225 7.63782 7.547 8.29982C6.869 8.96182 5.887 9.29382 4.601 9.29382Z" fill="white"/>
</g>
<defs>
<clipPath id="clip0_215_5360">
<rect width="63" height="11" fill="white" transform="translate(0 0.5)"/>
</clipPath>
</defs>
</svg>
