<svg width="18" height="18" viewBox="0 0 18 18" fill="none" xmlns="http://www.w3.org/2000/svg">
<g clip-path="url(#clip0_305_1888)">
<path d="M13.2093 11.6375C14.2986 10.151 14.7865 8.30803 14.5754 6.47727C14.3642 4.64651 13.4696 2.96299 12.0705 1.7635C10.6714 0.564015 8.87101 -0.0629667 7.02949 0.00799057C5.18796 0.0789479 3.44113 0.842612 2.13847 2.1462C0.835816 3.44979 0.0734021 5.19717 0.00376251 7.03874C-0.065877 8.88032 0.562393 10.6803 1.76288 12.0785C2.96336 13.4768 4.64753 14.3702 6.47844 14.58C8.30935 14.7898 10.152 14.3006 11.6377 13.2102H11.6365C11.6703 13.2552 11.7063 13.298 11.7468 13.3396L16.078 17.6709C16.289 17.882 16.5752 18.0006 16.8736 18.0007C17.172 18.0008 17.4583 17.8824 17.6694 17.6714C17.8805 17.4605 17.9991 17.1743 17.9992 16.8759C17.9993 16.5774 17.8809 16.2912 17.6699 16.0801L13.3387 11.7489C13.2984 11.7081 13.2552 11.6705 13.2093 11.6364V11.6375ZM13.4995 7.31298C13.4995 8.12553 13.3395 8.93013 13.0285 9.68083C12.7176 10.4315 12.2618 11.1136 11.6873 11.6882C11.1127 12.2628 10.4306 12.7185 9.6799 13.0295C8.9292 13.3404 8.1246 13.5005 7.31205 13.5005C6.49949 13.5005 5.69489 13.3404 4.94419 13.0295C4.19349 12.7185 3.51138 12.2628 2.93682 11.6882C2.36226 11.1136 1.90649 10.4315 1.59554 9.68083C1.28459 8.93013 1.12455 8.12553 1.12455 7.31298C1.12455 5.67195 1.77644 4.09814 2.93682 2.93776C4.0972 1.77738 5.67102 1.12548 7.31205 1.12548C8.95307 1.12548 10.5269 1.77738 11.6873 2.93776C12.8476 4.09814 13.4995 5.67195 13.4995 7.31298V7.31298Z" fill="white"/>
</g>
<defs>
<clipPath id="clip0_305_1888">
<rect width="18" height="18" fill="white"/>
</clipPath>
</defs>
</svg>
